<?xml version="1.0" encoding="UTF-8"?>
<!DOCTYPE svg PUBLIC "-//W3C//DTD SVG 1.1//EN" "http://www.w3.org/Graphics/SVG/1.1/DTD/svg11.dtd">
<svg xmlns="http://www.w3.org/2000/svg" version="1.1" width="400px" height="400px" style="shape-rendering:geometricPrecision; text-rendering:geometricPrecision; image-rendering:optimizeQuality; fill-rule:evenodd; clip-rule:evenodd" xmlns:xlink="http://www.w3.org/1999/xlink">
<g><path style="opacity:1" fill="#1dbaba" d="M 211.5,-0.5 C 212.167,-0.5 212.833,-0.5 213.5,-0.5C 213.833,0.833333 214.167,0.833333 214.5,-0.5C 218.167,-0.5 221.833,-0.5 225.5,-0.5C 223.573,2.76727 221.239,5.76727 218.5,8.5C 215.036,14.7966 216.369,16.13 222.5,12.5C 223.842,13.9023 224.676,13.5689 225,11.5C 226.881,12.3544 228.714,12.0211 230.5,10.5C 231.716,11.0016 232.883,11.3349 234,11.5C 234.333,10.8333 234.667,10.1667 235,9.5C 236.356,10.3802 237.856,10.7135 239.5,10.5C 248.833,10.5 258.167,10.5 267.5,10.5C 271.11,9.52383 274.444,10.3572 277.5,13C 272.294,19.3222 266.127,22.4889 259,22.5C 256.544,24.285 254.044,24.9517 251.5,24.5C 250.508,24.3284 249.842,24.6618 249.5,25.5C 248.508,25.3284 247.842,25.6618 247.5,26.5C 248.609,26.5569 249.609,26.8902 250.5,27.5C 251.167,27.1667 251.833,26.8333 252.5,26.5C 255.653,25.1609 258.82,24.8276 262,25.5C 263.441,24.7402 264.941,24.0736 266.5,23.5C 268.891,23.9985 271.224,24.3318 273.5,24.5C 275.735,24.7947 277.735,24.4614 279.5,23.5C 282.167,23.5 284.833,23.5 287.5,23.5C 289.265,24.4614 291.265,24.7947 293.5,24.5C 297.952,23.6148 302.119,23.6148 306,24.5C 312.472,25.8787 318.806,27.8787 325,30.5C 325.688,31.3317 325.521,31.9984 324.5,32.5C 321.415,34.2443 318.415,36.0776 315.5,38C 312.059,40.1343 308.393,41.6343 304.5,42.5C 302.139,42.6741 299.806,43.0074 297.5,43.5C 291.434,44.5155 285.434,45.5155 279.5,46.5C 278.833,45.1667 278.167,45.1667 277.5,46.5C 277.167,46.5 276.833,46.5 276.5,46.5C 275.711,46.7828 275.044,47.2828 274.5,48C 276.134,48.4935 277.801,48.6602 279.5,48.5C 284.888,47.6101 290.221,47.2768 295.5,47.5C 298.461,49.0022 301.461,49.3356 304.5,48.5C 305.192,49.0253 305.692,49.6919 306,50.5C 308.107,49.409 310.607,49.409 313.5,50.5C 314.172,51.2674 315.005,51.9341 316,52.5C 316.399,52.2716 316.565,51.9382 316.5,51.5C 320.087,51.3285 323.587,52.3285 327,54.5C 328.147,53.5419 329.147,53.8753 330,55.5C 330.333,55.1667 330.667,54.8333 331,54.5C 335.96,57.148 340.96,59.8147 346,62.5C 347.016,61.3659 347.683,61.6992 348,63.5C 348.333,63.1667 348.667,62.8333 349,62.5C 355.664,66.9116 361.831,71.9116 367.5,77.5C 361.254,81.8749 354.754,85.8749 348,89.5C 346.235,88.7607 344.235,88.7607 342,89.5C 341.333,88.8333 340.667,88.1667 340,87.5C 330.814,87.8304 321.481,87.8304 312,87.5C 310.527,87.9031 309.194,88.5697 308,89.5C 305.973,89.0137 303.807,89.0137 301.5,89.5C 301.565,89.0618 301.399,88.7284 301,88.5C 300.005,89.0659 299.172,89.7326 298.5,90.5C 298.167,90.5 297.833,90.5 297.5,90.5C 293.577,91.9444 293.91,92.611 298.5,92.5C 301.176,92.163 303.843,91.8297 306.5,91.5C 333.548,88.0077 357.048,96.6744 377,117.5C 386.256,127.685 392.589,139.352 396,152.5C 395.667,152.833 395.333,153.167 395,153.5C 392.017,152.473 389.017,151.473 386,150.5C 384.234,151.502 382.567,151.168 381,149.5C 379.883,149.665 378.716,149.998 377.5,150.5C 375.309,148.647 372.975,148.313 370.5,149.5C 365.159,148.508 359.825,147.508 354.5,146.5C 351.672,145.503 349.005,145.503 346.5,146.5C 341.859,145.873 337.193,145.54 332.5,145.5C 325.167,144.167 317.833,144.167 310.5,145.5C 304.112,145.603 297.779,146.269 291.5,147.5C 288.378,146.208 285.378,146.542 282.5,148.5C 280.899,147.835 279.399,147.501 278,147.5C 275.658,148.851 273.325,149.184 271,148.5C 269.527,148.903 268.194,149.57 267,150.5C 266.586,150.043 266.086,149.709 265.5,149.5C 257.003,150.612 248.503,152.612 240,155.5C 239.667,155.167 239.333,154.833 239,154.5C 236.52,155.812 234.02,156.812 231.5,157.5C 234.571,158.661 237.571,158.327 240.5,156.5C 245.32,156.462 250.153,156.462 255,156.5C 257.943,154.83 260.943,154.496 264,155.5C 266.888,155.023 269.721,154.356 272.5,153.5C 284.726,153.004 297.059,153.004 309.5,153.5C 313.833,153.5 318.167,153.5 322.5,153.5C 344.736,149.889 363.569,157.222 379,175.5C 386.358,184.917 393.192,194.583 399.5,204.5C 399.5,205.833 399.5,207.167 399.5,208.5C 395.951,207.737 392.451,206.737 389,205.5C 387.135,206.368 385.302,206.034 383.5,204.5C 382.914,204.709 382.414,205.043 382,205.5C 377.997,204.306 374.164,203.64 370.5,203.5C 368.833,202.167 367.167,202.167 365.5,203.5C 359.196,202.74 352.863,202.407 346.5,202.5C 329.341,201.503 312.008,201.17 294.5,201.5C 279.812,202.823 265.312,202.823 251,201.5C 242.874,200.222 234.374,198.555 225.5,196.5C 225.167,196.667 224.833,196.833 224.5,197C 225.126,197.75 225.626,198.584 226,199.5C 227.147,198.542 228.147,198.875 229,200.5C 229.333,200.167 229.667,199.833 230,199.5C 235.603,200.962 241.103,202.628 246.5,204.5C 247.086,204.291 247.586,203.957 248,203.5C 250.081,204.215 252.247,205.215 254.5,206.5C 257.034,206.434 259.534,206.434 262,206.5C 263,207.167 264,207.833 265,208.5C 268.333,208.5 271.667,208.5 275,208.5C 276.333,209.167 277.667,209.833 279,210.5C 281.361,209.488 284.028,209.821 287,211.5C 288.399,211.499 289.899,211.165 291.5,210.5C 294.723,212.416 298.057,212.749 301.5,211.5C 302.5,212.167 303.5,212.833 304.5,213.5C 306.386,213.072 308.219,212.739 310,212.5C 318.862,213.809 327.695,214.475 336.5,214.5C 344.316,215.492 352.316,215.826 360.5,215.5C 375.568,226.9 388.568,240.233 399.5,255.5C 399.5,257.5 399.5,259.5 399.5,261.5C 397.83,261.249 396.33,260.582 395,259.5C 393.127,260.089 391.46,259.422 390,257.5C 389.667,257.833 389.333,258.167 389,258.5C 384.099,256.951 379.433,255.618 375,254.5C 374.127,254.735 373.293,255.069 372.5,255.5C 369.243,254.449 365.91,253.782 362.5,253.5C 361.791,252.596 360.791,252.263 359.5,252.5C 357.901,253.562 356.234,253.562 354.5,252.5C 352.833,251.167 351.167,251.167 349.5,252.5C 346.193,251.949 342.86,251.616 339.5,251.5C 335.03,250.514 330.363,250.181 325.5,250.5C 286.816,250.499 249.15,239.999 212.5,219C 204.812,214.156 197.479,208.823 190.5,203C 189.833,202.333 189.167,202.333 188.5,203C 195.178,211.344 202.845,218.677 211.5,225C 235.356,240.121 259.69,250.288 284.5,255.5C 287.971,257.253 291.471,257.92 295,257.5C 295.667,258.167 296.333,258.833 297,259.5C 299,259.5 301,259.5 303,259.5C 304.415,262.958 304.915,266.625 304.5,270.5C 304.194,273.385 304.527,276.052 305.5,278.5C 305.577,282.794 306.244,286.961 307.5,291C 306.763,294.022 307.096,297.022 308.5,300C 307.879,302.498 308.545,304.832 310.5,307C 310,307.5 309.5,308 309,308.5C 261.108,299.564 218.774,276.898 182,240.5C 181.878,242.169 182.212,243.835 183,245.5C 202.765,270.657 227.265,289.99 256.5,303.5C 256.958,307.71 257.292,311.877 257.5,316C 255.955,318.085 255.622,320.252 256.5,322.5C 254.684,325.399 254.351,328.399 255.5,331.5C 253.988,334.66 253.321,337.993 253.5,341.5C 210.147,333.932 176.981,309.932 154,269.5C 153.5,270 153,270.5 152.5,271C 156.298,281.768 161.464,292.268 168,302.5C 176.309,312.975 185.475,322.642 195.5,331.5C 191.685,340.411 188.018,349.411 184.5,358.5C 183.277,359.614 181.944,359.781 180.5,359C 170.512,353.401 161.678,346.234 154,337.5C 141.582,321.877 131.582,304.877 124,286.5C 124.048,288.926 123.881,291.259 123.5,293.5C 125.156,299.767 126.489,306.101 127.5,312.5C 128.13,314.75 129.13,316.75 130.5,318.5C 133.765,326.863 138.432,334.363 144.5,341C 136.657,350.34 128.657,359.507 120.5,368.5C 105.344,350.79 95.3445,330.79 90.5,308.5C 91.0431,308.44 91.3764,308.107 91.5,307.5C 90.5,302.167 89.5,302.167 88.5,307.5C 88.6236,308.107 88.9569,308.44 89.5,308.5C 88.1667,317.167 88.1667,325.833 89.5,334.5C 88.2848,335.779 88.6182,336.779 90.5,337.5C 92.4548,346.698 95.7881,355.365 100.5,363.5C 89.0602,373.733 80.0602,385.733 73.5,399.5C 65.1667,399.5 56.8333,399.5 48.5,399.5C 47.414,394.106 46.414,388.606 45.5,383C 46.4249,377.884 46.7582,372.717 46.5,367.5C 47.4614,365.735 47.7947,363.735 47.5,361.5C 47.2107,356.891 47.8774,352.225 49.5,347.5C 49.2907,346.914 48.9574,346.414 48.5,346C 56.5531,318.779 70.2197,293.945 89.5,271.5C 90.935,269.599 92.6017,269.266 94.5,270.5C 96.1151,269.846 97.7818,269.346 99.5,269C 114.927,252.58 129.927,235.914 144.5,219C 142.431,218.676 142.098,217.842 143.5,216.5C 141.687,211.274 140.02,206.107 138.5,201C 139.126,200.25 139.626,199.416 140,198.5C 140.333,198.833 140.667,199.167 141,199.5C 143.865,197.733 146.532,196.399 149,195.5C 152.958,186.298 156.458,176.465 159.5,166C 155.122,155.817 150.789,146.483 146.5,138C 146.833,137.667 147.167,137.333 147.5,137C 146.692,136.692 146.025,136.192 145.5,135.5C 147.148,131.99 148.481,128.324 149.5,124.5C 149.167,124.167 148.833,123.833 148.5,123.5C 144.223,125.808 139.89,127.808 135.5,129.5C 139.824,141.597 144.824,152.931 150.5,163.5C 148.552,171.477 145.885,179.81 142.5,188.5C 140.795,190.303 138.962,190.969 137,190.5C 136.683,192.301 136.016,192.634 135,191.5C 133.416,192.861 131.582,193.528 129.5,193.5C 130.327,197.807 130.993,202.14 131.5,206.5C 131.41,209.152 132.076,211.485 133.5,213.5C 133.611,214.337 133.944,215.337 134.5,216.5C 122.648,230.023 109.981,243.023 96.5,255.5C 93.1667,255.5 89.8333,255.5 86.5,255.5C 86.5,257.167 86.5,258.833 86.5,260.5C 80.8638,267.471 74.8638,274.137 68.5,280.5C 65.0574,276.464 61.724,272.297 58.5,268C 55.1034,268.635 52.27,270.468 50,273.5C 48.8362,271.351 47.6695,269.185 46.5,267C 47.6341,265.984 47.3008,265.317 45.5,265C 45.8333,264.667 46.1667,264.333 46.5,264C 45.5,261.667 44.5,259.333 43.5,257C 44.566,255.841 44.2327,255.008 42.5,254.5C 37.6946,253.513 32.6946,253.179 27.5,253.5C 25.1928,251.408 25.5261,249.242 28.5,247C 28.1667,246.667 27.8333,246.333 27.5,246C 29.3926,241.936 31.0593,237.769 32.5,233.5C 30.3371,227.09 28.0038,220.423 25.5,213.5C 29.8333,213.5 34.1667,213.5 38.5,213.5C 44.5,213.5 50.5,213.5 56.5,213.5C 60.8839,213.826 65.2172,213.492 69.5,212.5C 69.0576,211.261 68.3909,210.261 67.5,209.5C 66.8112,208.293 66.6446,206.959 67,205.5C 65.9148,204.707 64.7481,204.04 63.5,203.5C 59.5565,203.195 55.5565,203.195 51.5,203.5C 49.6499,201.171 47.4832,200.837 45,202.5C 41.2608,201.993 37.5941,201.327 34,200.5C 32.4667,200.944 30.9667,201.277 29.5,201.5C 25.687,199.894 21.8537,199.561 18,200.5C 11.6564,189.452 5.48972,178.119 -0.5,166.5C -0.5,162.167 -0.5,157.833 -0.5,153.5C 0.833333,153.167 0.833333,152.833 -0.5,152.5C -0.5,151.833 -0.5,151.167 -0.5,150.5C 2.25536,144.576 6.58869,140.076 12.5,137C 28.9173,129.309 44.9173,121.642 60.5,114C 62.1814,112.055 62.848,110.055 62.5,108C 72.6485,99.3526 82.6485,90.5192 92.5,81.5C 99.9482,79.6859 107.448,79.3525 115,80.5C 119.051,79.3238 120.551,76.8238 119.5,73C 126.479,51.1088 138.812,32.4421 156.5,17C 161.09,14.7884 165.257,11.9551 169,8.5C 169.77,9.59809 170.603,9.59809 171.5,8.5C 171.176,12.5546 171.509,16.5546 172.5,20.5C 173.107,20.3764 173.44,20.0431 173.5,19.5C 179.802,14.5736 186.302,9.90689 193,5.5C 193.333,5.83333 193.667,6.16667 194,6.5C 195.828,4.91859 197.828,3.58526 200,2.5C 201.667,2.5 203.333,2.5 205,2.5C 207.166,1.26852 209.333,0.268525 211.5,-0.5 Z M 247.5,26.5 C 247.842,25.6618 248.508,25.3284 249.5,25.5C 250.338,25.8417 250.672,26.5084 250.5,27.5C 249.609,26.8902 248.609,26.5569 247.5,26.5 Z M 174.5,111.5 C 171.167,111.5 167.833,111.5 164.5,111.5C 166.063,108.337 167.73,105.17 169.5,102C 169.167,101.667 168.833,101.333 168.5,101C 170.248,97.8709 170.915,94.7043 170.5,91.5C 172.691,89.7924 173.024,87.7924 171.5,85.5C 172.477,81.6392 173.144,77.9725 173.5,74.5C 173.023,73.069 172.357,71.7357 171.5,70.5C 162.833,76.1667 154.167,81.8333 145.5,87.5C 145.167,87.1667 144.833,86.8333 144.5,86.5C 148.472,77.9572 154.472,70.4572 162.5,64C 167.423,59.2928 172.923,55.4594 179,52.5C 180,52.8333 181,53.1667 182,53.5C 182.236,55.764 182.736,57.9307 183.5,60C 182.786,61.3431 183.12,62.6764 184.5,64C 184.485,71.5299 184.485,79.0299 184.5,86.5C 182.743,95.4334 179.409,103.767 174.5,111.5 Z M 88.5,119.5 C 89.525,119.897 89.6917,120.563 89,121.5C 83.2875,127.376 77.7875,133.376 72.5,139.5C 69.1491,135.978 66.1491,132.144 63.5,128C 67.0537,126.702 70.5537,125.202 74,123.5C 76,123.5 78,123.5 80,123.5C 80.3173,121.699 80.984,121.366 82,122.5C 84.166,121.269 86.3326,120.269 88.5,119.5 Z M 22.5,157.5 C 23.2098,160.082 23.2098,162.582 22.5,165C 20.4074,168.303 18.7407,171.803 17.5,175.5C 14.4773,170.789 12.1439,166.123 10.5,161.5C 14.4282,160.557 18.4282,159.224 22.5,157.5 Z M 226.5,158.5 C 227.919,157.549 229.585,157.216 231.5,157.5C 231.167,158.5 230.5,159.167 229.5,159.5C 228.791,158.596 227.791,158.263 226.5,158.5 Z M 218.5,196.5 C 218.5,195.833 218.833,195.5 219.5,195.5C 220.742,197.346 220.409,197.679 218.5,196.5 Z M 223.5,197.5 C 221.663,197.361 221.33,196.694 222.5,195.5C 223.298,195.957 223.631,196.624 223.5,197.5 Z M 151.5,265.5 C 152.289,265.783 152.956,266.283 153.5,267C 152.184,267.528 151.517,267.028 151.5,265.5 Z"/></g>
<g><path style="opacity:0.408" fill="#0e8080" d="M 267.5,10.5 C 258.167,10.5 248.833,10.5 239.5,10.5C 248.837,7.89328 258.17,7.89328 267.5,10.5 Z"/></g>
<g><path style="opacity:0.448" fill="#0d5f5f" d="M 171.5,8.5 C 172.289,8.78281 172.956,9.28281 173.5,10C 172.182,13.2688 172.182,16.4355 173.5,19.5C 173.44,20.0431 173.107,20.3764 172.5,20.5C 171.509,16.5546 171.176,12.5546 171.5,8.5 Z"/></g>
<g><path style="opacity:0.205" fill="#0c6363" d="M 279.5,23.5 C 277.735,24.4614 275.735,24.7947 273.5,24.5C 273.811,23.5222 274.478,22.8555 275.5,22.5C 276.736,23.2458 278.07,23.5792 279.5,23.5 Z"/></g>
<g><path style="opacity:0.214" fill="#0c6464" d="M 293.5,24.5 C 291.265,24.7947 289.265,24.4614 287.5,23.5C 288.93,23.5792 290.264,23.2458 291.5,22.5C 292.522,22.8555 293.189,23.5222 293.5,24.5 Z"/></g>
<g><path style="opacity:0.004" fill="#025050" d="M 249.5,25.5 C 249.842,24.6618 250.508,24.3284 251.5,24.5C 251.833,25.1667 252.167,25.8333 252.5,26.5C 251.833,26.8333 251.167,27.1667 250.5,27.5C 250.672,26.5084 250.338,25.8417 249.5,25.5 Z"/></g>
<g><path style="opacity:0.004" fill="#076a6a" d="M 304.5,42.5 C 303.688,43.9931 302.355,44.6598 300.5,44.5C 299.274,44.4805 298.274,44.1471 297.5,43.5C 299.806,43.0074 302.139,42.6741 304.5,42.5 Z"/></g>
<g><path style="opacity:0.007" fill="#045555" d="M 279.5,46.5 C 278.494,46.9377 278.494,47.6043 279.5,48.5C 277.801,48.6602 276.134,48.4935 274.5,48C 275.044,47.2828 275.711,46.7828 276.5,46.5C 276.833,47.8333 277.167,47.8333 277.5,46.5C 278.167,45.1667 278.833,45.1667 279.5,46.5 Z"/></g>
<g><path style="opacity:0.004" fill="#034d4d" d="M 313.5,50.5 C 314.791,50.2627 315.791,50.596 316.5,51.5C 316.565,51.9382 316.399,52.2716 316,52.5C 315.005,51.9341 314.172,51.2674 313.5,50.5 Z"/></g>
<g><path style="opacity:0.302" fill="#0b7c7c" d="M 301.5,89.5 C 303.167,90.1667 304.833,90.8333 306.5,91.5C 303.843,91.8297 301.176,92.163 298.5,92.5C 293.91,92.611 293.577,91.9444 297.5,90.5C 300.143,91.5069 300.477,91.5069 298.5,90.5C 299.172,89.7326 300.005,89.0659 301,88.5C 301.399,88.7284 301.565,89.0618 301.5,89.5 Z"/></g>
<g><path style="opacity:0.01" fill="#0a6969" d="M 164.5,111.5 C 167.833,111.5 171.167,111.5 174.5,111.5C 174.389,112.117 174.056,112.617 173.5,113C 170.518,113.498 167.518,113.665 164.5,113.5C 164.5,112.833 164.5,112.167 164.5,111.5 Z"/></g>
<g><path style="opacity:0.445" fill="#0f8383" d="M 310.5,145.5 C 317.833,144.167 325.167,144.167 332.5,145.5C 325.174,146.79 317.841,146.79 310.5,145.5 Z"/></g>
<g><path style="opacity:0.005" fill="#096d6d" d="M 346.5,146.5 C 349.005,145.503 351.672,145.503 354.5,146.5C 351.974,147.657 349.307,147.657 346.5,146.5 Z"/></g>
<g><path style="opacity:0.078" fill="#0c6868" d="M 322.5,153.5 C 318.167,153.5 313.833,153.5 309.5,153.5C 313.804,150.91 318.137,150.91 322.5,153.5 Z"/></g>
<g><path style="opacity:0.656" fill="#0c7575" d="M 226.5,158.5 C 227.791,158.263 228.791,158.596 229.5,159.5C 225.548,159.39 221.548,159.557 217.5,160C 220.149,159.548 222.649,158.714 225,157.5C 225.383,158.056 225.883,158.389 226.5,158.5 Z"/></g>
<g><path style="opacity:0.004" fill="#054949" d="M 216.5,194.5 C 217.791,194.263 218.791,194.596 219.5,195.5C 218.833,195.5 218.5,195.833 218.5,196.5C 218.565,196.938 218.399,197.272 218,197.5C 216.961,196.756 216.461,195.756 216.5,194.5 Z"/></g>
<g><path style="opacity:0.255" fill="#0d6b6b" d="M 294.5,201.5 C 312.008,201.17 329.341,201.503 346.5,202.5C 330.241,203.651 313.907,203.817 297.5,203C 296.263,202.768 295.263,202.268 294.5,201.5 Z"/></g>
<g><path style="opacity:0.498" fill="#0b5c5c" d="M 365.5,203.5 C 367.167,202.167 368.833,202.167 370.5,203.5C 368.833,204.833 367.167,204.833 365.5,203.5 Z"/></g>
<g><path style="opacity:0.004" fill="#087070" d="M 131.5,206.5 C 132.924,208.515 133.59,210.848 133.5,213.5C 132.076,211.485 131.41,209.152 131.5,206.5 Z"/></g>
<g><path style="opacity:0.151" fill="#0a6565" d="M 38.5,213.5 C 34.1667,213.5 29.8333,213.5 25.5,213.5C 26.6936,212.223 28.3603,211.556 30.5,211.5C 33.4857,211.382 36.1524,212.048 38.5,213.5 Z"/></g>
<g><path style="opacity:0.008" fill="#047777" d="M 67.5,209.5 C 68.3909,210.261 69.0576,211.261 69.5,212.5C 65.2172,213.492 60.8839,213.826 56.5,213.5C 59.9619,212.518 63.6286,212.185 67.5,212.5C 67.5,211.5 67.5,210.5 67.5,209.5 Z"/></g>
<g><path style="opacity:0.498" fill="#095959" d="M 360.5,215.5 C 352.316,215.826 344.316,215.492 336.5,214.5C 343.129,213.917 349.795,213.584 356.5,213.5C 358.355,213.34 359.688,214.007 360.5,215.5 Z"/></g>
<g><path style="opacity:0.435" fill="#0e8080" d="M 325.5,250.5 C 330.363,250.181 335.03,250.514 339.5,251.5C 339.083,252.124 338.416,252.457 337.5,252.5C 333.339,251.96 329.339,251.293 325.5,250.5 Z"/></g>
<g><path style="opacity:0.498" fill="#0c6d6d" d="M 349.5,252.5 C 351.167,251.167 352.833,251.167 354.5,252.5C 352.833,253.833 351.167,253.833 349.5,252.5 Z"/></g>
<g><path style="opacity:0.399" fill="#0e8080" d="M 27.5,253.5 C 32.6946,253.179 37.6946,253.513 42.5,254.5C 41.7354,254.923 40.9021,255.257 40,255.5C 35.6836,254.92 31.5169,254.253 27.5,253.5 Z"/></g>
<g><path style="opacity:0.004" fill="#045454" d="M 359.5,252.5 C 360.791,252.263 361.791,252.596 362.5,253.5C 360.804,255.129 359.804,254.796 359.5,252.5 Z"/></g>
<g><path style="opacity:0.37" fill="#116262" d="M 96.5,255.5 C 94.3165,257.856 91.6499,258.189 88.5,256.5C 87.8281,257.949 87.1614,259.282 86.5,260.5C 86.5,258.833 86.5,257.167 86.5,255.5C 89.8333,255.5 93.1667,255.5 96.5,255.5 Z"/></g>
<g><path style="opacity:0.363" fill="#0b6d6d" d="M 304.5,270.5 C 305.748,271.334 306.415,272.667 306.5,274.5C 306.489,276.045 306.156,277.378 305.5,278.5C 304.527,276.052 304.194,273.385 304.5,270.5 Z"/></g>
<g><path style="opacity:0.004" fill="#0e6868" d="M 90.5,308.5 C 90.1667,307.167 89.8333,307.167 89.5,308.5C 88.9569,308.44 88.6236,308.107 88.5,307.5C 89.5,302.167 90.5,302.167 91.5,307.5C 91.3764,308.107 91.0431,308.44 90.5,308.5 Z"/></g>
<g><path style="opacity:0.341" fill="#0a6767" d="M 127.5,312.5 C 129.614,313.784 130.614,315.784 130.5,318.5C 129.13,316.75 128.13,314.75 127.5,312.5 Z"/></g>
<g><path style="opacity:0.004" fill="#035454" d="M 89.5,334.5 C 90.404,335.209 90.7373,336.209 90.5,337.5C 88.6182,336.779 88.2848,335.779 89.5,334.5 Z"/></g>
<g><path style="opacity:0.166" fill="#096767" d="M 47.5,361.5 C 47.7947,363.735 47.4614,365.735 46.5,367.5C 45.5155,365.402 45.8489,363.402 47.5,361.5 Z"/></g>
</svg>
